<?xml version="1.0" standalone="no"?><!DOCTYPE svg PUBLIC "-//W3C//DTD SVG 1.1//EN" "http://www.w3.org/Graphics/SVG/1.1/DTD/svg11.dtd"><svg class="icon" height="512" viewBox="0 0 1433 1024" version="1.1" xmlns="http://www.w3.org/2000/svg"><path d="M257.024 757.6576a66.9696 66.9696 0 0 1-51.9168-65.536V331.776c2.2528-32.768 22.528-58.368 51.8144-65.536l322.3552-72.4992L613.0688 51.2H238.8992C105.984 51.2 0 161.1776 0 296.8576v425.6768C0 858.112 108.2368 970.4448 238.8992 970.4448h374.1696l-33.792-142.6432-322.3552-70.144zM1194.5984 51.2H818.176l33.792 142.6432 322.3552 72.6016c29.2864 6.9632 51.8144 32.768 51.8144 65.536v360.1408c-2.2528 32.768-22.528 58.368-51.8144 65.536l-322.3552 72.4992L818.176 972.8h376.4224C1325.3632 972.8 1433.6 862.8224 1433.6 724.8896v-428.032C1431.3472 161.0752 1325.3632 51.2 1194.7008 51.2z m-615.424 442.0608h275.0464v35.1232H579.2768v-35.1232z" /></svg>